<svg width="22" height="21" viewBox="0 0 22 21" fill="none" xmlns="http://www.w3.org/2000/svg">
<path d="M20.9041 6.22713L18.6685 4.8753V0.283685C18.6685 0.138489 18.5509 0.0211296 18.4059 0.0211296H15.0916C14.9468 0.0211296 14.8293 0.138489 14.8293 0.283685V2.55416L10.6674 0.0379524C10.641 0.022131 10.612 0.0119172 10.5821 0.00711066C10.5152 -0.00851052 10.4451 0.00250441 10.3863 0.0379524L0.157409 6.22713C0.0789031 6.27439 0.030838 6.35991 0.030838 6.45163V8.61717C0.030838 8.71129 0.0811061 8.79821 0.162616 8.84487C0.244327 8.89174 0.344663 8.89134 0.425773 8.84387L1.96626 7.94325V18.522H1.23327C1.08827 18.522 0.970911 18.6393 0.970911 18.7845V20.7376C0.970911 20.8826 1.08827 21.0001 1.23327 21.0001H19.8282C19.9732 21.0001 20.0908 20.8826 20.0908 20.7376V18.7845C20.0908 18.6393 19.9732 18.522 19.8282 18.522H19.0952V7.94385L20.6359 8.84387C20.6768 8.86771 20.7224 8.87972 20.7683 8.87972C20.8134 8.87972 20.8584 8.86811 20.8989 8.84487C20.9806 8.79821 21.0307 8.71129 21.0307 8.61717V6.45163C21.0307 6.35991 20.9826 6.27439 20.9041 6.22713ZM15.3542 0.54604H18.1434V4.55787L15.3542 2.87159V0.54604ZM19.5657 20.475H1.49582V19.0469H19.5657V20.475ZM12.8933 18.522H8.16825V10.3233H12.8933V18.522ZM18.5703 18.522H13.4184V10.0607C13.4184 9.91552 13.3008 9.79816 13.1558 9.79816H7.9057C7.7609 9.79816 7.64334 9.91552 7.64334 10.0607V18.522H2.49117V7.63624L10.5268 2.93788L18.5703 7.63704V18.522ZM20.5058 8.15995L10.6592 2.40716C10.6184 2.38333 10.5725 2.37131 10.5268 2.37131C10.481 2.37131 10.4353 2.38333 10.3943 2.40716L0.555749 8.15955V6.59943L10.5268 0.566668L20.5058 6.59943V8.15995Z" fill="#31353B"/>
</svg>
