<svg width="98" height="19" viewBox="0 0 98 19" fill="none" xmlns="http://www.w3.org/2000/svg">
<path d="M32.919 0.291879V7.47766H22.9079V0.291879L19.2617 0.288635V18.407H22.9079V10.6233H32.919V18.407H36.5711V0.291879H32.919Z" fill="#718087"/>
<path d="M81.4258 0.292542V18.4034H97.4224L95.3964 15.215H85.0823V10.624H95.0695V7.553H85.0823V3.40625H95.3791L97.364 0.292542H81.4258Z" fill="#718087"/>
<path d="M5.70849 0.287659C1.91565 0.287659 0 2.59345 0 5.94852V12.7117C0 16.5943 2.46868 18.4072 5.68954 18.4072L17.1292 18.4061L15.0085 15.0943H6.39627C4.56667 15.0943 3.76958 14.433 3.76958 12.3854V6.24939C3.76958 4.26991 4.4406 3.4977 6.44497 3.4977H15.0983L17.1346 0.287659H5.70849Z" fill="#718087"/>
<path d="M65.4234 0.283196C63.2329 0.283196 60.9877 1.59979 60.9877 4.98624V5.85639C60.9877 9.38678 63.1479 10.7337 65.3092 10.7429H72.8955C73.6834 10.7429 74.3235 10.8738 74.3235 12.2056L74.3224 13.744C74.3024 14.9405 73.7055 15.2143 72.8684 15.2143H62.8882L60.8438 18.4027H73.1033C76.0595 18.4027 78.0666 16.9319 78.0666 13.5346V12.2862C78.0666 9.00149 76.2018 7.4495 73.3105 7.4495H66.0668C65.2638 7.4495 64.7042 7.23034 64.7042 6.04092V4.78818C64.7042 3.77517 65.0879 3.40557 66.0235 3.40557L75.5281 3.40178L77.5146 0.27887L65.4234 0.283196Z" fill="#718087"/>
<path d="M47.1648 0.292542L38.5742 18.4066H42.6344L44.3076 14.6657H53.6428L55.3106 18.4066H59.3886L50.778 0.292542H47.1648ZM48.9663 4.05346L52.2672 11.5823H45.6864L48.9663 4.05346Z" fill="#718087"/>
</svg>
